# ProBuilder 4.2.3
# https://unity3d.com/unity/features/worldbuilding/probuilder
# 22/04/2020 19:27:17

mtllib ./RoadStraight.mtl
o RoadStraight

g RoadStraight
v 1.5 -0.5 10.5
v 0.5 -0.5 10.5
v 1.5 0.5 10.5
v 0.5 0.5 10.5
v -3.5 -0.5 -9.5
v -3.5 -0.5 -10.5
v -3.5 0.5 -9.5
v -3.5 0.5 -10.5
v 0.5 -0.5 -10.5
v 1.5 -0.5 -10.5
v 0.5 0.5 -10.5
v 1.5 0.5 -10.5
v 3.5 -0.5 -10.5
v 3.5 -0.5 -9.5
v 3.5 0.5 -10.5
v 3.5 0.5 -9.5
v 1.5 0.5 -9.5
v 0.5 0.5 -9.5
v 1.5 -0.5 -9.5
v 0.5 -0.5 -9.5
v 2.5 -0.5 -10.5
v 2.5 -0.5 -9.5
v 2.5 0.5 -10.5
v 2.5 -0.5 10.5
v 2.5 0.5 10.5
v 2.5 0.5 -9.5
v 3.5 -0.5 10.5
v 3.5 0.5 10.5
v -3.5 -0.5 10.5
v -3.5 0.5 10.5
v -0.5 -0.5 -9.5
v -0.5 -0.5 -10.5
v -0.5 -0.5 10.5
v -0.5 0.5 -10.5
v -0.5 0.5 -9.5
v -0.5 0.5 10.5
v -1.5 -0.5 -9.5
v -1.5 -0.5 -10.5
v -1.5 -0.5 10.5
v -1.5 0.5 -10.5
v -1.5 0.5 -9.5
v -1.5 0.5 10.5
v -2.5 -0.5 -9.5
v -2.5 -0.5 -10.5
v -2.5 -0.5 10.5
v -2.5 0.5 -10.5
v -2.5 0.5 -9.5
v -2.5 0.5 10.5

vt 1.5 -0.5
vt 0.5 -0.5
vt 1.5 0.5
vt 0.5 0.5
vt -9.5 -0.5
vt -10.5 -0.5
vt -9.5 0.5
vt -10.5 0.5
vt -0.5 -0.5
vt -1.5 -0.5
vt -0.5 0.5
vt -1.5 0.5
vt 10.5 -0.5
vt 9.5 -0.5
vt 10.5 0.5
vt 9.5 0.5
vt -1.5 -9.5
vt -0.5 -9.5
vt -1.5 -10.5
vt -0.5 -10.5
vt 1.5 -10.5
vt 0.5 -10.5
vt 1.5 -9.5
vt 0.5 -9.5
vt 2.5 -10.5
vt 2.5 -9.5
vt -2.5 0.5
vt -2.5 -0.5
vt 2.5 -0.5
vt 2.5 0.5
vt -2.5 -9.5
vt -2.5 -10.5
vt 3.5 -10.5
vt 3.5 -9.5
vt -3.5 0.5
vt -3.5 -0.5
vt 3.5 -0.5
vt 3.5 0.5
vt -3.5 -9.5
vt -3.5 -10.5
vt 1.5 10.5
vt 0.5 10.5
vt 3.5 10.5
vt 2.5 10.5
vt -2.5 10.5
vt -3.5 10.5
vt -1.5 10.5
vt -0.5 10.5

vn 0 0 1
vn -1 0 0
vn 0 0 -1
vn 1 0 0
vn 0 1 0
vn 0 -1 0

usemtl ProBuilderDefault
f 3/3/1 4/4/1 2/2/1 1/1/1
f 7/7/2 8/8/2 6/6/2 5/5/2
f 11/11/3 12/12/3 10/10/3 9/9/3
f 15/15/4 16/16/4 14/14/4 13/13/4
f 12/19/5 11/20/5 18/18/5 17/17/5
f 19/23/6 20/24/6 9/22/6 10/21/6
f 21/25/6 22/26/6 19/23/6 10/21/6
f 23/27/3 21/28/3 10/10/3 12/12/3
f 24/29/1 25/30/1 3/3/1 1/1/1
f 26/31/5 23/32/5 12/19/5 17/17/5
f 13/33/6 14/34/6 22/26/6 21/25/6
f 15/35/3 13/36/3 21/28/3 23/27/3
f 27/37/1 28/38/1 25/30/1 24/29/1
f 16/39/5 15/40/5 23/32/5 26/31/5
f 1/41/6 2/42/6 20/24/6 19/23/6
f 27/43/6 24/44/6 22/26/6 14/34/6
f 25/45/5 28/46/5 16/39/5 26/31/5
f 28/8/4 27/6/4 14/14/4 16/16/4
f 29/13/2 30/15/2 7/7/2 5/5/2
f 24/44/6 1/41/6 19/23/6 22/26/6
f 3/47/5 25/45/5 26/31/5 17/17/5
f 4/48/5 3/47/5 17/17/5 18/18/5
f 31/18/6 32/20/6 9/22/6 20/24/6
f 33/48/6 31/18/6 20/24/6 2/42/6
f 32/2/3 34/4/3 11/11/3 9/9/3
f 34/22/5 35/24/5 18/18/5 11/20/5
f 35/24/5 36/42/5 4/48/5 18/18/5
f 36/11/1 33/9/1 2/2/1 4/4/1
f 37/17/6 38/19/6 32/20/6 31/18/6
f 39/47/6 37/17/6 31/18/6 33/48/6
f 38/1/3 40/3/3 34/4/3 32/2/3
f 40/21/5 41/23/5 35/24/5 34/22/5
f 41/23/5 42/41/5 36/42/5 35/24/5
f 42/12/1 39/10/1 33/9/1 36/11/1
f 43/31/6 44/32/6 38/19/6 37/17/6
f 45/45/6 43/31/6 37/17/6 39/47/6
f 44/29/3 46/30/3 40/3/3 38/1/3
f 46/25/5 47/26/5 41/23/5 40/21/5
f 47/26/5 48/44/5 42/41/5 41/23/5
f 48/27/1 45/28/1 39/10/1 42/12/1
f 6/37/3 8/38/3 46/30/3 44/29/3
f 29/46/6 5/39/6 43/31/6 45/45/6
f 7/34/5 30/43/5 48/44/5 47/26/5
f 30/35/1 29/36/1 45/28/1 48/27/1
f 5/39/6 6/40/6 44/32/6 43/31/6
f 8/33/5 7/34/5 47/26/5 46/25/5

